# xmcd
#
# Track frame offsets: 
#        150
#        10132
#        20605
#        32192
#        46910
#        56318
#        67222
#        79701
#        93241
#        105751
#        118395
#        136201
#        150489
#        163062
#        174979
#
# Disc length: 2511 seconds
#
# Revision: 1
# Processed by: cddbd v1.5.2PL0 Copyright (c) Steve Scherf et al.
# Submitted via: ExactAudioCopy v0.95b4
#
DISCID=b609cd0f
DTITLE=Various Artist - Classic Bluegrass Collection, Volume 4 [CD-1 of 2)
DYEAR=2006
DGENRE=Bluegrass
TTITLE0=Grandpa Jones - Mountain Dew[Grandpa Jones]
TTITLE1=The Stanley Brothers - Clinch Mountain Backstep[The Stanley Br
TTITLE1=others]
TTITLE2=Jimmy Martin - Tennessee[Jimmy Martin]
TTITLE3=The Country Gentlemen - Two Little Boys[The Country Gentlemen]
TTITLE4=Earl Taylor - Children Are Crying[Earl Taylor]
TTITLE5=The Lonesome Pine Fiddlers - Windy Mountain[The Lonesome Pine 
TTITLE5=Fiddlers]
TTITLE6=Jim and Jesse - Paradise[Jim and Jesse]
TTITLE7=The Seldom Scene - City Of New Orleans[The Seldom Scene]
TTITLE8=Muleskinner - Dark Hollow[Muleskinner]
TTITLE9=Peter Rowan - Roving Gambler[Peter Rowan]
TTITLE10=The Lonesome River Band - Hobo Blues[The Lonesome River Band]
TTITLE11=Hot Rize - Colleen Malone[Hot Rize]
TTITLE12=Wilma Lee Cooper - Shackles And Chains[Wilma Lee Cooper]
TTITLE13=Bill Monroe - A Voice From On High[Bill Monroe]
TTITLE14=Ralph Stanley - O Death[Ralph Stanley]
EXTD=
EXTT0=
EXTT1=
EXTT2=
EXTT3=
EXTT4=
EXTT5=
EXTT6=
EXTT7=
EXTT8=
EXTT9=
EXTT10=
EXTT11=
EXTT12=
EXTT13=
EXTT14=
PLAYORDER=
